<?xml version="1.0" encoding="utf-8"?>
<!-- Generator: Adobe Illustrator 16.0.0, SVG Export Plug-In . SVG Version: 6.00 Build 0)  -->
<!DOCTYPE svg PUBLIC "-//W3C//DTD SVG 1.1//EN" "http://www.w3.org/Graphics/SVG/1.1/DTD/svg11.dtd">
<svg version="1.1" id="Layer_1" xmlns="http://www.w3.org/2000/svg" xmlns:xlink="http://www.w3.org/1999/xlink" x="0px" y="0px"
	 width="174px" height="174px" viewBox="0 0 174 174" enable-background="new 0 0 174 174" xml:space="preserve">
<path fill="#5B7074" d="M87,0c48.049,0,87,38.951,87,87s-38.951,87-87,87S0,135.049,0,87S38.951,0,87,0z"/>
<g>
	<g>
		<path fill="#FFFFFF" d="M47.994,84.496c-4.158-1.902-5.839-3.008-5.839-5.44c0-1.902,1.548-3.761,4.999-3.761
			c2.787,0,4.866,0.841,6.061,1.46l1.371-5.353c-1.593-0.796-4.069-1.548-7.299-1.548c-7.343,0-11.722,4.291-11.722,9.864
			c0,4.424,3.185,7.608,8.316,9.82c3.76,1.637,5.396,3.097,5.396,5.528c0,2.521-1.902,4.248-5.529,4.248
			c-2.743,0-5.574-0.842-7.343-1.902l-1.283,5.484c1.592,0.974,4.999,1.901,8.36,1.901c7.918,0,12.386-4.336,12.386-10.263
			C55.868,90.07,53.435,86.929,47.994,84.496z M68.056,89.406H79.16v-5.354H68.056v-8.228h11.766V70.34H61.51v34.018h19.02v-5.483
			H68.056V89.406z M104.418,80.56c0,5.529,0.178,10.351,0.575,14.686h-0.089c-1.371-3.538-3.273-7.696-5.088-11.103L92.65,70.341
			h-7.076v34.019h5.928V93.92c0-6.061-0.133-10.837-0.398-15.04h0.179c1.416,3.716,3.405,7.919,5.22,11.413l7.299,14.066h6.549
			V70.341h-5.93L104.418,80.56L104.418,80.56z M138.171,73.614c-2.831-2.345-6.68-3.539-12.342-3.539
			c-3.317,0-6.414,0.266-8.804,0.708v33.441c1.727,0.221,4.248,0.441,7.389,0.441c5.928,0,10.66-1.372,13.757-4.158
			c2.61-2.345,5.132-6.592,5.132-13.891C143.303,80.471,141.4,76.269,138.171,73.614z M126.051,99.448c-0.885,0-1.857,0-2.521-0.134
			V75.473c0.709-0.133,1.727-0.266,3.099-0.266c6.062,0,9.819,3.804,9.819,11.501C136.445,95.645,132.288,99.492,126.051,99.448z"/>
	</g>
</g>
</svg>
